<svg width="17" height="13" viewBox="0 0 17 13" fill="none" xmlns="http://www.w3.org/2000/svg">
<path fill-rule="evenodd" clip-rule="evenodd" d="M13.6541 10.3351L15.783 12.3728L15.1269 13L2.20227 0.628698L2.85677 0L5.06291 2.11169C6.12927 1.7034 7.28836 1.47929 8.5 1.47929C12.2153 1.47929 15.4329 3.5858 17 6.6568C16.244 8.14446 15.0895 9.41366 13.6541 10.3351ZM5.78464 2.80325L7.07045 4.03402C7.65381 3.74211 8.3193 3.63608 8.96999 3.73139C9.62069 3.8267 10.2226 4.11836 10.6881 4.56389C11.1535 5.00943 11.4582 5.58557 11.5578 6.20841C11.6574 6.83125 11.5466 7.46824 11.2416 8.02663L12.9841 9.69453C14.2004 8.95488 15.2281 7.91716 15.9553 6.65754C14.4392 4.03106 11.6172 2.36686 8.5 2.36686C7.57588 2.36742 6.65827 2.51489 5.78464 2.80325ZM10.5385 7.35355C10.6763 6.98425 10.7019 6.58506 10.612 6.20243C10.5222 5.8198 10.3207 5.46945 10.031 5.19213C9.74124 4.91482 9.37522 4.72195 8.97547 4.63595C8.57572 4.54996 8.15868 4.57437 7.77286 4.70636L10.5385 7.35355ZM11.9371 11.2027C10.8707 11.6109 9.71164 11.8351 8.5 11.8351C4.78473 11.8351 1.56709 9.72855 0 6.65754C0.755975 5.16989 1.9105 3.90069 3.34591 2.97929L4.01586 3.62056C2.77525 4.37825 1.75356 5.42233 1.04473 6.6568C2.56082 9.28254 5.38282 10.9467 8.5 10.9467C9.42412 10.9462 10.3417 10.7987 11.2154 10.5104L11.9371 11.2027ZM5.75914 5.28846L6.46155 5.96154C6.32366 6.33084 6.29815 6.73002 6.38799 7.11266C6.47783 7.49529 6.67933 7.84564 6.96905 8.12295C7.25876 8.40026 7.62478 8.59314 8.02453 8.67913C8.42428 8.76513 8.84132 8.74071 9.22714 8.60873L9.93032 9.28032C9.34696 9.57224 8.68147 9.67827 8.03078 9.58296C7.38008 9.48765 6.77817 9.19599 6.31271 8.75045C5.84724 8.30492 5.54253 7.72877 5.44296 7.10594C5.34339 6.4831 5.45416 5.84684 5.75914 5.28846Z" fill="black" fill-opacity="0.5"/>
</svg>
