<svg width="14" height="16" viewBox="0 0 14 16" fill="none" xmlns="http://www.w3.org/2000/svg">
<path d="M7 0C4.58763 0 2.625 1.7944 2.625 4V5.6H1.75C0.784875 5.6 0 6.3176 0 7.2V14.4C0 15.2824 0.784875 16 1.75 16H12.25C13.2151 16 14 15.2824 14 14.4V7.2C14 6.3176 13.2151 5.6 12.25 5.6H11.375V4C11.375 1.7944 9.41237 0 7 0ZM4.375 4C4.375 2.6768 5.55275 1.6 7 1.6C8.44725 1.6 9.625 2.6768 9.625 4V5.6H4.375V4ZM12.2518 14.4H7.875V12.5776C8.39563 12.3 8.75 11.7896 8.75 11.2C8.75 10.3176 7.96513 9.6 7 9.6C6.03487 9.6 5.25 10.3176 5.25 11.2C5.25 11.7888 5.60437 12.3 6.125 12.5776V14.4H1.75V7.2H12.25L12.2518 14.4Z" fill="black"/>
</svg>
