<svg width="17" height="11" viewBox="0 0 17 11" fill="none" xmlns="http://www.w3.org/2000/svg">
<path fill-rule="evenodd" clip-rule="evenodd" d="M8.5 10.0571C11.6172 10.0571 14.4392 8.28929 15.9553 5.5C14.4392 2.71071 11.6172 0.942857 8.5 0.942857C5.38282 0.942857 2.56082 2.71071 1.04473 5.5C2.56082 8.28929 5.38282 10.0571 8.5 10.0571ZM8.5 0C12.2153 0 15.4329 2.23771 17 5.5C15.4329 8.76229 12.2153 11 8.5 11C4.78473 11 1.56709 8.76229 0 5.5C1.56709 2.23771 4.78473 0 8.5 0ZM8.5 7.7C9.07383 7.7 9.62416 7.46821 10.0299 7.05563C10.4357 6.64305 10.6636 6.08348 10.6636 5.5C10.6636 4.91652 10.4357 4.35694 10.0299 3.94436C9.62416 3.53178 9.07383 3.3 8.5 3.3C7.92617 3.3 7.37584 3.53178 6.97008 3.94436C6.56432 4.35694 6.33636 4.91652 6.33636 5.5C6.33636 6.08348 6.56432 6.64305 6.97008 7.05563C7.37584 7.46821 7.92617 7.7 8.5 7.7ZM8.5 8.64286C7.68024 8.64286 6.89405 8.31174 6.3144 7.72234C5.73474 7.13294 5.40909 6.33354 5.40909 5.5C5.40909 4.66646 5.73474 3.86706 6.3144 3.27766C6.89405 2.68826 7.68024 2.35714 8.5 2.35714C9.31976 2.35714 10.1059 2.68826 10.6856 3.27766C11.2653 3.86706 11.5909 4.66646 11.5909 5.5C11.5909 6.33354 11.2653 7.13294 10.6856 7.72234C10.1059 8.31174 9.31976 8.64286 8.5 8.64286Z" fill="black" fill-opacity="0.5"/>
</svg>
