<svg width="16" height="16" viewBox="0 0 16 16" fill="none" xmlns="http://www.w3.org/2000/svg">
<path fill-rule="evenodd" clip-rule="evenodd" d="M10.2857 4C10.2857 4.60621 10.0449 5.18759 9.61624 5.61624C9.18759 6.0449 8.60621 6.28571 8 6.28571C7.39379 6.28571 6.81241 6.0449 6.38376 5.61624C5.9551 5.18759 5.71429 4.60621 5.71429 4C5.71429 3.39379 5.9551 2.81241 6.38376 2.38376C6.81241 1.9551 7.39379 1.71429 8 1.71429C8.60621 1.71429 9.18759 1.9551 9.61624 2.38376C10.0449 2.81241 10.2857 3.39379 10.2857 4ZM12 4C12 5.06087 11.5786 6.07828 10.8284 6.82843C10.0783 7.57857 9.06087 8 8 8C6.93913 8 5.92172 7.57857 5.17157 6.82843C4.42143 6.07828 4 5.06087 4 4C4 2.93913 4.42143 1.92172 5.17157 1.17157C5.92172 0.421427 6.93913 0 8 0C9.06087 0 10.0783 0.421427 10.8284 1.17157C11.5786 1.92172 12 2.93913 12 4ZM1.71429 13.1429C1.71429 12.9097 1.96571 12.2183 3.22286 11.4754C4.38629 10.7886 6.08 10.2857 8 10.2857C9.92 10.2857 11.6137 10.7886 12.7771 11.4754C14.0343 12.2183 14.2857 12.9097 14.2857 13.1429C14.2857 13.446 14.1653 13.7367 13.951 13.951C13.7367 14.1653 13.446 14.2857 13.1429 14.2857H2.85714C2.55404 14.2857 2.26335 14.1653 2.04902 13.951C1.83469 13.7367 1.71429 13.446 1.71429 13.1429ZM8 8.57143C3.6 8.57143 0 10.8571 0 13.1429C0 13.9006 0.30102 14.6273 0.836838 15.1632C1.37266 15.699 2.09938 16 2.85714 16H13.1429C13.9006 16 14.6273 15.699 15.1632 15.1632C15.699 14.6273 16 13.9006 16 13.1429C16 10.8571 12.4 8.57143 8 8.57143Z" fill="black"/>
</svg>
