<svg width="30" height="30" viewBox="0 0 30 30" fill="none" xmlns="http://www.w3.org/2000/svg">
<path d="M26.5843 1.39731C26.4868 0.93276 26.2314 0.530265 25.8734 0.276897C25.5155 0.0235295 25.0836 -0.060339 24.6714 0.043435C24.2591 0.147209 23.8995 0.430281 23.6705 0.831416C23.4414 1.23255 23.3613 1.7195 23.4474 2.18691C24.2295 6.14943 24.6409 10.2694 24.6409 14.5008C24.6409 18.7321 24.2295 22.8521 23.4474 26.8146C23.4014 27.0475 23.3964 27.2882 23.4327 27.5233C23.469 27.7583 23.5459 27.9829 23.659 28.1843C23.7722 28.3857 23.9193 28.5599 24.0919 28.6971C24.2646 28.8342 24.4595 28.9316 24.6655 28.9836C24.8715 29.0356 25.0845 29.0412 25.2924 29.0002C25.5003 28.9591 25.699 28.8722 25.8772 28.7443C26.0553 28.6165 26.2095 28.4502 26.3308 28.255C26.4521 28.0598 26.5383 27.8395 26.5843 27.6066C27.1499 24.7365 27.5356 21.7888 27.722 18.7806C28.4098 18.3684 28.9853 17.7522 29.3866 16.9981C29.7879 16.2441 30 15.3808 30 14.5008C30 13.6208 29.7879 12.7574 29.3866 12.0034C28.9853 11.2494 28.4098 10.6332 27.722 10.221C27.5351 7.25213 27.1548 4.30292 26.5843 1.39731ZM7.1737 21.767H6.42805C4.72322 21.767 3.08822 21.0015 1.88273 19.6388C0.677239 18.2761 0 16.4279 0 14.5008C0 12.5736 0.677239 10.7254 1.88273 9.36276C3.08822 8.00007 4.72322 7.23453 6.42805 7.23453H10.7134C14.2424 7.23453 17.6064 6.43039 20.6683 4.97472C21.1654 8.06046 21.4268 11.2431 21.4268 14.5008C21.4268 17.7585 21.1654 20.9411 20.6683 24.0268C17.7923 22.6649 14.7211 21.9058 11.6048 21.7864C12.0397 23.5254 12.629 25.1943 13.3532 26.7686C13.6103 27.3257 13.4753 28.016 13.0211 28.3744L11.2469 29.7792C11.1278 29.8762 10.9917 29.9434 10.8479 29.9765C10.704 30.0096 10.5555 30.0077 10.4123 29.9711C10.2691 29.9345 10.1344 29.8639 10.0171 29.764C9.89987 29.6641 9.80271 29.5372 9.73207 29.3917C8.5905 26.9862 7.7305 24.4232 7.1737 21.767Z" fill="black"/>
</svg>
