<svg width="30" height="30" viewBox="0 0 30 30" fill="none" xmlns="http://www.w3.org/2000/svg">
<path d="M15 0C13.0302 0 11.0796 0.387987 9.25975 1.14181C7.43986 1.89563 5.78628 3.00052 4.3934 4.3934C1.58035 7.20644 0 11.0218 0 15C0 18.9782 1.58035 22.7936 4.3934 25.6066C5.78628 26.9995 7.43986 28.1044 9.25975 28.8582C11.0796 29.612 13.0302 30 15 30C18.9782 30 22.7936 28.4196 25.6066 25.6066C28.4196 22.7936 30 18.9782 30 15C30 13.0302 29.612 11.0796 28.8582 9.25975C28.1044 7.43986 26.9995 5.78628 25.6066 4.3934C24.2137 3.00052 22.5601 1.89563 20.7403 1.14181C18.9204 0.387987 16.9698 0 15 0ZM7.5 11.25C7.5 10.05 8.55 9 9.75 9C10.95 9 12 10.05 12 11.25C12 12.45 10.95 13.5 9.75 13.5C8.55 13.5 7.5 12.45 7.5 11.25ZM19.155 22.845C18.48 21.75 16.875 21 15 21C13.125 21 11.52 21.75 10.845 22.845L8.715 20.715C10.065 19.08 12.375 18 15 18C17.625 18 19.935 19.08 21.285 20.715L19.155 22.845ZM20.25 13.5C19.05 13.5 18 12.45 18 11.25C18 10.05 19.05 9 20.25 9C21.45 9 22.5 10.05 22.5 11.25C22.5 12.45 21.45 13.5 20.25 13.5Z" fill="black"/>
</svg>
