<svg width="30" height="30" viewBox="0 0 30 30" fill="none" xmlns="http://www.w3.org/2000/svg">
<path d="M25.2706 25.41L21.0918 21C20.8376 20.685 20.5412 20.25 20.5412 19.575C20.5412 19.0578 20.7345 18.5618 21.0787 18.1961C21.4229 17.8304 21.8897 17.625 22.3765 17.625C22.8565 17.625 23.3365 17.835 23.6753 18.225L25.2847 19.89L26.8659 18.195C27.2047 17.835 27.6847 17.625 28.1647 17.625C28.6515 17.625 29.1183 17.8304 29.4625 18.1961C29.8066 18.5618 30 19.0578 30 19.575C30 20.085 29.8024 20.595 29.4635 20.955L25.2706 25.41ZM23.2376 26.43C20.6956 28.7374 17.4611 30.0036 14.1176 30C10.3734 30 6.78254 28.4196 4.13496 25.6066C1.48739 22.7935 0 18.9782 0 15C0 11.0217 1.48739 7.20644 4.13496 4.3934C6.78254 1.58035 10.3734 0 14.1176 0C15.9716 0 17.8074 0.387986 19.5202 1.14181C21.2331 1.89563 22.7894 3.00052 24.1003 4.3934C25.4113 5.78628 26.4512 7.43986 27.1607 9.25974C27.8701 11.0796 28.2353 13.0302 28.2353 15C28.2353 15.135 28.2353 15.255 28.1647 15.375C27.12 15.375 26.1176 15.825 25.3694 16.605L25.2706 16.71L25.1859 16.635C24.8214 16.2351 24.3847 15.9174 23.902 15.7009C23.4193 15.4844 22.9004 15.3735 22.3765 15.375C21.3281 15.375 20.3226 15.8175 19.5813 16.6051C18.84 17.3928 18.4235 18.4611 18.4235 19.575C18.4235 20.67 18.8329 21.75 19.5812 22.545L23.2376 26.43ZM16.9412 11.25C16.9412 12.45 17.9294 13.5 19.0588 13.5C20.1882 13.5 21.1765 12.45 21.1765 11.25C21.1765 10.05 20.1882 9 19.0588 9C17.9294 9 16.9412 10.05 16.9412 11.25ZM11.2941 11.25C11.2941 10.05 10.3059 9 9.17647 9C8.04706 9 7.05882 10.05 7.05882 11.25C7.05882 12.45 8.04706 13.5 9.17647 13.5C10.3059 13.5 11.2941 12.45 11.2941 11.25ZM16.8565 19.77L18.3529 18.18L15.36 15L13.8635 16.59L15.36 18.18L13.8635 19.77L15.36 21.36L13.8635 22.95L15.36 24.54L18.3529 21.36L16.8565 19.77Z" fill="black"/>
</svg>
