<svg width="30" height="30" viewBox="0 0 30 30" fill="none" xmlns="http://www.w3.org/2000/svg">
<path d="M15 0C6.705 0 0 6.75 0 15C0 18.9782 1.58035 22.7936 4.3934 25.6066C5.78628 26.9995 7.43986 28.1044 9.25975 28.8582C11.0796 29.612 13.0302 30 15 30C18.9782 30 22.7936 28.4196 25.6066 25.6066C28.4196 22.7936 30 18.9782 30 15C30 13.0302 29.612 11.0796 28.8582 9.25975C28.1044 7.43986 26.9995 5.78628 25.6066 4.3934C24.2137 3.00052 22.5601 1.89563 20.7403 1.14181C18.9204 0.387987 16.9698 0 15 0ZM20.25 9C20.8467 9 21.419 9.23705 21.841 9.65901C22.2629 10.081 22.5 10.6533 22.5 11.25C22.5 11.8467 22.2629 12.419 21.841 12.841C21.419 13.2629 20.8467 13.5 20.25 13.5C19.6533 13.5 19.081 13.2629 18.659 12.841C18.2371 12.419 18 11.8467 18 11.25C18 10.6533 18.2371 10.081 18.659 9.65901C19.081 9.23705 19.6533 9 20.25 9ZM9.75 9C10.3467 9 10.919 9.23705 11.341 9.65901C11.7629 10.081 12 10.6533 12 11.25C12 11.8467 11.7629 12.419 11.341 12.841C10.919 13.2629 10.3467 13.5 9.75 13.5C9.15326 13.5 8.58097 13.2629 8.15901 12.841C7.73705 12.419 7.5 11.8467 7.5 11.25C7.5 10.6533 7.73705 10.081 8.15901 9.65901C8.58097 9.23705 9.15326 9 9.75 9ZM15 23.25C11.505 23.25 8.535 21.06 7.335 18H22.665C21.45 21.06 18.495 23.25 15 23.25Z" fill="black"/>
</svg>
