<svg width="19" height="19" viewBox="0 0 19 19" fill="none" xmlns="http://www.w3.org/2000/svg">
<g clip-path="url(#clip0_22_61)">
<path d="M11.45 8.55C10.8977 8.55 10.45 8.10228 10.45 7.55V5.7C10.45 5.17533 10.0247 4.75 9.5 4.75C8.97533 4.75 8.55 5.17533 8.55 5.7V7.55C8.55 8.10229 8.10228 8.55 7.55 8.55H5.7C5.17533 8.55 4.75 8.97533 4.75 9.5C4.75 10.0247 5.17533 10.45 5.7 10.45H7.55C8.10229 10.45 8.55 10.8977 8.55 11.45V13.3C8.55 13.8247 8.97533 14.25 9.5 14.25C10.0247 14.25 10.45 13.8247 10.45 13.3V11.45C10.45 10.8977 10.8977 10.45 11.45 10.45H13.3C13.8247 10.45 14.25 10.0247 14.25 9.5C14.25 8.97533 13.8247 8.55 13.3 8.55H11.45ZM9.5 19C6.98044 19 4.56408 17.9991 2.78249 16.2175C1.00089 14.4359 0 12.0196 0 9.5C0 6.98044 1.00089 4.56408 2.78249 2.78249C4.56408 1.00089 6.98044 0 9.5 0C12.0196 0 14.4359 1.00089 16.2175 2.78249C17.9991 4.56408 19 6.98044 19 9.5C19 12.0196 17.9991 14.4359 16.2175 16.2175C14.4359 17.9991 12.0196 19 9.5 19Z" fill="white"/>
</g>
<defs>
<clipPath id="clip0_22_61">
<rect width="19" height="19" fill="white"/>
</clipPath>
</defs>
</svg>
