<svg width="12" height="11" viewBox="0 0 12 11" fill="none" xmlns="http://www.w3.org/2000/svg">
<path d="M8.26855 2.29169C8.39011 2.29169 8.50669 2.33998 8.59264 2.42593C8.67859 2.51188 8.72688 2.62846 8.72688 2.75002C8.72688 2.87158 8.67859 2.98816 8.59264 3.07411C8.50669 3.16006 8.39011 3.20835 8.26855 3.20835H7.81022L7.80884 3.2409L7.38122 9.23177C7.36475 9.46304 7.26127 9.67948 7.0916 9.83749C6.92194 9.99551 6.69869 10.0834 6.46684 10.0834H2.73647C2.50461 10.0834 2.28137 9.99551 2.11171 9.83749C1.94204 9.67948 1.83855 9.46304 1.82209 9.23177L1.39447 3.24135L1.39355 3.20835H0.935216C0.813659 3.20835 0.69708 3.16006 0.611126 3.07411C0.525171 2.98816 0.476883 2.87158 0.476883 2.75002C0.476883 2.62846 0.525171 2.51188 0.611126 2.42593C0.69708 2.33998 0.813659 2.29169 0.935216 2.29169H8.26855ZM5.51855 0.916687C5.64011 0.916687 5.75669 0.964976 5.84264 1.05093C5.92859 1.13688 5.97688 1.25346 5.97688 1.37502C5.97688 1.49658 5.92859 1.61316 5.84264 1.69911C5.75669 1.78507 5.64011 1.83335 5.51855 1.83335H3.68522C3.56366 1.83335 3.44708 1.78507 3.36113 1.69911C3.27517 1.61316 3.22688 1.49658 3.22688 1.37502C3.22688 1.25346 3.27517 1.13688 3.36113 1.05093C3.44708 0.964976 3.56366 0.916687 3.68522 0.916687H5.51855Z" fill="#FF4A4A"/>
</svg>
