<svg width="10" height="9" viewBox="0 0 10 9" fill="none" xmlns="http://www.w3.org/2000/svg">
<path d="M0.546141 5.9962L0.0133334 8.29569C-0.0050467 8.37975 -0.00441662 8.46685 0.0151775 8.55063C0.0347717 8.63442 0.0728349 8.71277 0.126587 8.77996C0.180338 8.84715 0.248421 8.90148 0.32586 8.93899C0.4033 8.97649 0.48814 8.99623 0.574183 8.99675C0.614261 9.00108 0.654688 9.00108 0.694766 8.99675L3.00827 8.46394L7.4502 4.03884L4.97124 1.56549L0.546141 5.9962Z" fill="#6082FF"/>
<path d="M8.84675 1.82349L7.19225 0.16898C7.08347 0.0607547 6.93627 0 6.78283 0C6.62938 0 6.48218 0.0607547 6.37341 0.16898L5.45361 1.08877L7.92976 3.56493L8.84956 2.64513C8.90339 2.59103 8.94602 2.52685 8.97501 2.45626C9.00401 2.38566 9.0188 2.31004 9.01854 2.23373C9.01828 2.15741 9.00297 2.0819 8.97349 2.0115C8.94402 1.94111 8.90095 1.87722 8.84675 1.82349Z" fill="#6082FF"/>
</svg>
